<?xml version="1.0" standalone="no"?><!DOCTYPE svg PUBLIC "-//W3C//DTD SVG 1.1//EN" "http://www.w3.org/Graphics/SVG/1.1/DTD/svg11.dtd"><svg class="icon" width="200px" height="200.00px" viewBox="0 0 1024 1024" version="1.1" xmlns="http://www.w3.org/2000/svg"><path d="M848.327111 498.050844c3.163022 7.873422 5.006222 16.406756 5.006222 25.3952l0 318.577778c0 37.705956-30.560711 68.266667-68.266667 68.266667l-546.133333 0c-37.705956 0-68.266667-30.560711-68.266667-68.266667l0-318.577778c0-9.0112 1.8432-17.544533 5.006222-25.3952-29.036089-7.850667-50.517333-34.087822-50.517333-65.627022l0-113.777778c0-37.705956 30.560711-68.266667 68.266667-68.266667l263.350044 0-97.4848-97.4848c-8.965689-8.965689-8.965689-23.483733 0-32.449422 8.988444-8.988444 23.506489-8.988444 32.494933 0l113.641244 113.641244c4.3008 4.3008 6.417067 9.921422 6.576356 15.5648 0.182044-5.643378 2.275556-11.241244 6.576356-15.5648l113.641244-113.641244c8.988444-8.988444 23.506489-8.988444 32.494933 0 8.965689 8.965689 8.965689 23.483733 0 32.449422l-97.4848 97.4848L830.577778 250.379378c37.705956 0 68.266667 30.560711 68.266667 68.266667l0 113.777778C898.844444 463.963022 877.385956 490.200178 848.327111 498.050844zM762.311111 864.779378c25.122133 0 45.511111-20.388978 45.511111-45.511111l0-273.066667c0-25.122133-20.388978-45.511111-45.511111-45.511111l-227.555556 0 0 364.088889L762.311111 864.779378zM216.177778 819.268267c0 25.122133 20.388978 45.511111 45.511111 45.511111l227.555556 0 0-364.088889-227.555556 0c-25.122133 0-45.511111 20.388978-45.511111 45.511111L216.177778 819.268267zM216.177778 295.890489c-25.122133 0-45.511111 20.388978-45.511111 45.511111l0 68.266667c0 25.122133 20.388978 45.511111 45.511111 45.511111l273.066667 0 0-159.288889L216.177778 295.890489zM853.333333 341.4016c0-25.122133-20.388978-45.511111-45.511111-45.511111l-273.066667 0 0 159.288889 273.066667 0c25.122133 0 45.511111-20.388978 45.511111-45.511111L853.333333 341.4016z" /></svg>