<?xml version="1.0" standalone="no"?><!DOCTYPE svg PUBLIC "-//W3C//DTD SVG 1.1//EN" "http://www.w3.org/Graphics/SVG/1.1/DTD/svg11.dtd"><svg class="icon" width="200px" height="200.00px" viewBox="0 0 1024 1024" version="1.1" xmlns="http://www.w3.org/2000/svg"><path d="M834.3 243.1h-71.6v-71.6c0-59.3-48.2-107.5-107.5-107.5H368.6c-59.3 0-107.5 48.2-107.5 107.5v71.6h-71.6C130.3 243.1 82 291.3 82 350.6v501.5c0 59.3 48.2 107.5 107.5 107.5h644.8c28.7 0 55.7-11.2 76-31.5 20.3-20.3 31.5-47.3 31.5-76V350.6c0-59.3-48.2-107.5-107.5-107.5z m-501.4-71.6c0-19.7 16-35.8 35.8-35.8h286.6c19.7 0 35.8 16 35.8 35.8v71.6H332.9v-71.6z m-71.8 187.7c-11.1 10.5-18 25.4-18 41.9 0 31.9 25.9 57.8 57.8 57.8s57.8-25.9 57.8-57.8c0-20.1-10.3-37.8-25.9-48.2v-38.1H691v44.4c-11.1 10.5-18 25.4-18 41.9 0 31.9 25.9 57.8 57.8 57.8s57.8-25.9 57.8-57.8c0-20.1-10.3-37.8-25.9-48.2v-38.1h71.6c19.7 0 35.8 16 35.8 35.8v501.5c0 19.7-16.1 35.8-35.8 35.8H189.5c-19.7 0-35.8-16-35.8-35.8V350.6c0-19.7 16-35.8 35.8-35.8h71.6v44.4z"  /></svg>