<?xml version="1.0" standalone="no"?><!DOCTYPE svg PUBLIC "-//W3C//DTD SVG 1.1//EN" "http://www.w3.org/Graphics/SVG/1.1/DTD/svg11.dtd"><svg class="icon" width="200px" height="200.00px" viewBox="0 0 1024 1024" version="1.1" xmlns="http://www.w3.org/2000/svg"><path d="M919.124284 688.952506l0 218.571478c0 33.006275-26.215819 59.771868-57.904617 59.771868l-692.674132 0c-31.817574 0-57.899664-26.72597-57.899664-59.771868l0-218.571478c0-15.651235-12.624999-28.350528-28.187082-28.350528-15.571988 0-28.187082 12.699293-28.187082 28.350528l0 218.571478c0 64.120534 51.084442 116.453113 114.273827 116.453113l692.674132 0c63.016033 0 114.273827-52.342485 114.273827-116.453113l0-218.571478c0-15.651235-12.615094-28.350528-28.182129-28.350528s-28.187082 12.699293-28.187082 28.350528l0 0 0 0zM67.401905 420.01476l0-274.487992c0-23.359964 18.999411-42.344515 42.545604-42.344515l809.875137 0c23.452088 0 42.530745 19.115309 42.530745 42.344515l0 274.487992c0 15.651235 12.629952 28.340622 28.201941 28.340622 15.567035 0 28.187082-12.689387 28.187082-28.340622l0-274.487992c0-54.586159-44.388091-99.035666-98.919768-99.035666l-809.875137 0c-54.601017 0-98.919768 44.289033-98.919768 99.035666l0 274.487992c0 15.651235 12.620046 28.340622 28.187082 28.340622 15.571988 0 28.187082-12.686416 28.187082-28.340622l0 0 0 0zM675.772344 392.545852c-2.238721-0.574539-4.581453-0.873696-6.998479-0.873696-15.557129 0-28.187082 12.686416-28.187082 28.342604 0 71.861952-56.428646 129.860674-125.705172 129.860674-69.28148 0-125.705172-57.99575-125.705172-129.860674 0-15.656188-12.624999-28.342604-28.182129-28.342604-2.40712 0-4.764711 0.299157-6.998479 0.873696-2.238721-0.574539-4.581453-0.873696-6.993527-0.873696-15.571988 0-28.187082 12.686416-28.187082 28.342604 0 71.861952-56.41874 129.860674-125.705172 129.860674s-125.708144-57.996741-125.708144-129.860674c0-15.656188-12.615094-28.342604-28.187082-28.342604-15.567035 0-28.187082 12.686416-28.187082 28.342604 0 102.892011 81.381469 186.540928 182.084289 186.540928 69.796583 0 130.321296-40.197919 160.890734-99.122837l0 0c30.564485 58.924919 91.079291 99.122837 160.885781 99.122837 69.801536 0 130.321296-40.197919 160.890734-99.122837 30.564485 58.924919 91.074338 99.122837 160.885781 99.122837 100.707773 0 182.079336-83.651889 182.079336-186.540928 0-15.656188-12.620046-28.342604-28.182129-28.342604-15.571988 0-28.201941 12.686416-28.201941 28.342604 0 71.861952-56.413787 129.860674-125.695266 129.860674-69.276527 0-125.705172-57.99575-125.705172-129.860674 0-15.656188-12.615094-28.342604-28.192035-28.342604-2.42396 0.001981-4.76174 0.299157-6.995508 0.873696l0 0z" /></svg>